<svg version="1.1" class="map_svg" xmlns="http://www.w3.org/2000/svg" xmlns:xlink="http://www.w3.org/1999/xlink" x="0px" y="0px"
	 viewBox="0 0 1920 1080" style="enable-background:new 0 0 1920 1080;" xml:space="preserve">
<style type="text/css">
	.st0{fill:#E6E4E0;}
	.st1{fill:#B6E59E;}
	.st2{fill:#DCD9D6;}
	.st3{font-family:'MyriadPro-Regular';}
	.st4{font-size:27.9735px;}
	.st5{fill:#FFB808;}
	.st6{fill:#FFFFFF;}
	.st7{fill:#75CFF0;}
</style>

<g id="road">
	<g>
		<polygon class="st0" points="991,177 959,174 960,154 1628,165 1627,181 		"/>
		<polyline class="st0" points="1634,164 1650,165 1647,177 1633,177 1634,164 		"/>
		<path class="st0" d="M1655,165l-2,13l150,62c0,0,5-10,7-10s4,2,6,5s38,67,38,67s17,48,20,57s4,14,7,37s2,86,2,86l7-1
			c0,0-2-83-7-113s-22-72-22-72l-19-41c0,0-22.5-28.5-36.5-41.5s-49-46-49-46L1655,165z"/>
		<path class="st0" d="M1808,244l4-6c0,0,22,35,23,39c1.1,4.3,15,24,17,29s21,64,22,67s7,56,6,64s-1,40-1,40l-17-28l-19-140l-14-33
			L1808,244z"/>
		<polygon class="st0" points="1860,461 1876,481 1859,480 		"/>
		<polygon class="st0" points="1860,485 1889,487 1889,516 1859,512 		"/>
		<path class="st0" d="M1859,519l29,3c0,0,1,59-11,84s-27,45-41,58s-60,56-60,56l-15-21c0,0,63-62,67-69s22-46,24-52
			S1859,519,1859,519z"/>
		<path class="st0" d="M1754,697l0.7,1l16.3,23c0,0-35,16-46,18s-11,2-11,2l-5-30"/>
		<path class="st0" d="M1705,714l5,28c0,0-101,2-154,2s-246-5-246-5l-4-14l29.5-8.5l163,6l13,12c0,0,28-11,37-11s81,5,81,5l-2,7l6,3
			l5-12L1705,714z"/>
		<path class="st0" d="M1302,715c0,0-2,9,0,12s1,10,1,10l-378-17l1-14l26-17L1302,715z"/>
		<path class="st0" d="M925,700l22-14l17-226h-17l-26,225c0,0-4,8-1,10S925,700,925,700z"/>
		<path class="st0" d="M920,721l-19-1c0,0,4-21,6-47s19-214,19-214l14,1l-25.5,230.5l6,11L920,721z"/>
		<polygon class="st0" points="925,453 942,454 970,180 959,178 		"/>
		<polygon class="st0" points="991,182 974,182 948,455 965,455 992,184 		"/>
		<path class="st0" d="M889,456l12,1c0,0-14,214-17,229s-6,35-6,35h-24c0,0,15.5-96.5,17.5-110.5S889,456,889,456z"/>
		<path class="st0" d="M891,450l11,2c0,0,32-233,33-254s1-21,1-21h-14L891,450z"/>
		<polygon class="st0" points="936,154 936,172 916,172 910,153 		"/>
		<polygon class="st0" points="905,180 906,178 911,178 885,451 881,449 		"/>
		<polygon class="st0" points="851,719 853,703 834,690 796,694 559,685 558,712 		"/>
		<polygon class="st0" points="552,685 552,711 293,702 294,673 		"/>
		<polygon class="st0" points="289,674 290,703 129,699 108,664 117,651 128,653 		"/>
		<polygon class="st0" points="56,568 78,614 104,637 108,647 101,661 88,661 66,653 58,617 		"/>
		<path class="st0" d="M52,602c0,0-9,40-10,50s-1,29-1,29l41-17l-20.5-8.5l-6-27c0,0-3-8-2-13S52,602,52,602z"/>
		<path class="st0" d="M44,686l45-20l14,3l18,29c0,0-45-1-50-3S44,686,44,686z"/>
		<polygon class="st0" points="42,202 66.5,226 42,215 		"/>
		<polygon class="st0" points="33,193 39,194 54,177 40,173 32,180 		"/>
		<polygon class="st0" points="44,196 59,181 81,193 115,202 115.5,213 86,234 		"/>
		<polygon class="st0" points="54,155 69,162 58,173 43,167 		"/>
		<path class="st0" d="M31,131l35,1c0,0-21,14-22,17s-13,17-13,17V131z"/>
		<polygon class="st0" points="62,148 73,139 86,135 90,137 76,153 		"/>
		<polygon class="st0" points="82,156 94,142 103,165 		"/>
		<polyline class="st0" points="101,141 101.9,141.5 119.5,150.5 119,171 112,169 		"/>
		<polygon class="st0" points="74,164 108,178 114,196 84,188 65,176 		"/>
	</g>
	<path class="st1" d="M16,100"/>
	<polygon class="st2" points="16,100 1898,138 1898,84 14,86 	"/>
	<path class="st2" d="M27,716c0,0,542,25,635,28s1031,27,1041,27s80-15,102-36s94-117,94-117l3,170L14,780L27,716z"/>
	<text transform="matrix(1 0 0 1 868.6016 141.2393)" class="st3 st4">Elizabeth St</text>
	<text transform="matrix(1 0 0 1 822.6016 743.2393)" class="st3 st4">College St</text>
	<text transform="matrix(4.667082e-02 -0.9989 0.9989 4.667082e-02 919.4813 526.889)" class="st3 st4">Park St</text>
</g>
<g id="train">
	<g>
		<g>
			<circle class="st5" cx="1652" cy="152" r="18"/>
			<path class="st6" d="M1640,142h23v5h-9v19h-5v-19h-9C1640,147,1640,141.8,1640,142z"/>
		</g>
		<g>
			<circle class="st5" cx="87" cy="132" r="18"/>
			<path class="st6" d="M75,122h23v5h-9v19h-5v-19h-9C75,127,75,121.8,75,122z"/>
		</g>
	</g>
</g>
<g id="fountain">
	<a xlink:href="http://www.hotmail.com">
		<path class="st7" d="M1565,491c-0.4-10.7,10.9-19.5,14-22c9.6-7.5,19.6-8.8,22-9c3.6-0.4,11.4-1,20,3c11.8,5.5,16.6,15.9,18,19
		c1.4,3.2,5.8,14,2,27c-0.7,2.3-5.6,18.3-22,25c-13.4,5.4-31.1,3.2-38-6c-4.1-5.5-3.7-12.5-10-21c-0.7-0.9-2.5-3.3-4-7
		C1565.5,496.1,1565.1,492.6,1565,491z"/>
	</a>
</g>
<g id="homeless">
	<path class="st1" d="M1520,431l47,41c0,0-3,8-4,12s-2,8-2,8l-59-4c0,0-2-16,4-28S1520,431,1520,431z"/>
	<path class="st1" d="M1654,256l67,6l39,40l-58,124c0,0-14-19-27-24s-13-5-13-5L1654,256z"/>
</g>
<g id="chess">
	<polygon class="st1" points="1646,211 1648,252 1621,250 1641,212 	"/>
</g>
<g id="dancing">
	<polygon class="st1" points="965,456 1242,473 1025,187 989,185 	"/>
</g>
<g id="buskers">
	<path class="st1" d="M1639,472c0,1,21-10,21-10l3,38h-17c0,0,1-7-1-14S1639,472,1639,472z"/>
	<path class="st1" d="M1576,528l-43,48c0,0,21,19,32,22s37,10,37,10l-5-70c0,0-7,2-11,0S1576,528,1576,528z"/>
</g>
<g id="tourist">
	<path class="st1" d="M1601,541l6,69c0,0,39-8,46-11s22-13,22-13l-43-52c0,0-1.5,1.5-12.5,3.5S1601,541,1601,541z"/>
	<polygon class="st1" points="1595,615 1611,617 1633,726 1558,718 	"/>
	<path class="st1" d="M1646,503c0,0,1,7-2,13s-11,12-11,12l45,55c0,0,33-31,35-35s9-27,9-33s-1-7-1-7l-55.5,25.5l-2-31L1646,503z"/>
</g>
<g id="students">
	<polygon class="st1" points="1247,468 1369,349 1109,216 1032,187 	"/>
	<path class="st1" d="M693,259c0,0,174-70,186-73s27-6,27-6l-23,270l-33-2L693,259z"/>
	<path class="st1" d="M120,219l-28,23c0,0-3,12,1,20s63,135,63,135s16-41,20-49s36-41,36-41L120,219z"/>
	<polygon class="st1" points="578,301 685,258 596,162 	"/>
	<polygon class="st1" points="577,306 688,263 843,448 573,424 	"/>
</g>
<g id="wedding">
	<path class="st1" d="M964,462l-23,214l8,10c0,0,159-99,178-115s112-96,112-96L964,462z"/>
</g>
<g id="skate">
	<path class="st1" d="M569,387l-4,85c0,0-245-15-265-18s-35-5-37-4s-27.5-15.5-23.5-33.5s8-29,13-32s20-8,20-8l126,5l14-7L569,387z"
		/>
</g>
<g id="family">
	<path class="st1" d="M1503,492c0,0-2,26,5,43s23,40,23,40l44-48l-8-18l-5-1l-1-10L1503,492z"/>
	<path class="st1" d="M1524,426c0,0,34-22,40-26s29-11,36-11s11,0,11,0l-5,65c0,0-10-2-18,2s-15,14-15,14L1524,426z"/>
</g>
<g id="grass">
	<path class="st1" d="M1617,388l-6,68c0,0,11,0,15,4s8,8,8,8l26-13l-3-56c0,0-17-8-27-9S1617,388,1617,388z"/>
	<path class="st1" d="M1662,400l1,53c0,0,23-8,26-12s9-12,9-12s-18-17-24-21S1662,400,1662,400z"/>
	<path class="st1" d="M1665,458l2,41l55,4c0,0-3-27-8-39s-12-28-12-28s-6,7-7,9S1665,458,1665,458z"/>
	<polygon class="st1" points="1667,504 1668,527 1713,507 	"/>
	<path class="st1" d="M1684,590l77,112c0,0,72-66,82-93s19-69,19-78s0-10,0-10l-135-10c0,0,4.5,22.5-6.5,39.5S1684,590,1684,590z"/>
	<polygon class="st1" points="1737,504 1826,490 1835,511 	"/>
	<polygon class="st1" points="1831,489 1861,486 1861,512 1840,511 	"/>
	<path class="st1" d="M1615,614l22,113c0,0,36-1,71-13s48-15,48-15l-78-108c0,0-11,12-23,16S1615,614,1615,614z"/>
	<path class="st1" d="M1528,581c0,0,24,21,34,23s30,9,30,9l-39,107l-19,3h-29l-57-61L1528,581z"/>
	<path class="st1" d="M1764,307c0,0,24,87,35,112s26,66,26,66l-100,19c0,0,1-28-10-49s-12-24-12-24L1764,307z"/>
	<path class="st1" d="M1769,313c0,0,29,94,37,113s24,60,24,60l30-5l2-20c0,0-18-27-23-45s-6-33-15-42S1769,313,1769,313z"/>
	<path class="st1" d="M1614,254l-97-2l-140,94l140,78c0,0,33-26,49-31s46-9,46-9L1614,254z"/>
	<path class="st1" d="M1372,351l-121,119l246,17c0,0,0-22,8-36s10-22,10-22L1372,351z"/>
	<path class="st1" d="M1252,474l243,19c0,0,2,23,5,33s4,16,4,16l-81,95l-53-4L1252,474z"/>
	<path class="st1" d="M1507,547c0,0,4,15,10,22s7,8,7,8l-81,82l-17-20L1507,547z"/>
	<path class="st1" d="M1630,176l-12,73l-99-2l-145,97c0,0-269-137-305-150s-37-13-37-13l-40-4l1-11L1630,176z"/>
	<path class="st1" d="M1246,474l54,78l1,167l-342-12l-9-16c0,0,150.5-92.5,157.5-98.5S1246,474,1246,474z"/>
	<polygon class="st1" points="1304,558 1306,717 1368,637 	"/>
	<polyline class="st1" points="1310,717 1371,640 1423,643 1440,661 1311,717 	"/>
	<polygon class="st1" points="1321,720 1444,665 1498,723 	"/>
	<polygon class="st1" points="1728,261 1762,298 1782,271 	"/>
	<polygon class="st1" points="1633,177 1621,239 1637,210 1633,209 1635,193 1645,193 1648,176 	"/>
	<path class="st1" d="M1652,177l-2,18h12v16l-12-1l2,42c0,0,76,4,88,6s45,8,45,8l20-26c0,0-28-27-40-34s-56-27-56-27L1652,177z"/>
	<path class="st1" d="M1619,254c0,0,0,81-1,104s-2,27-2,27s10-3,24,3s16,7,16,7l-10-140L1619,254z"/>
	<path class="st1" d="M1808,243l-42,60c0,0,34,34,43,46s17,19,21,27s13,43,14,45s18,31,18,31s1-75-10-114s-23-70-32-82
		S1808,243,1808,243z"/>
	<path class="st1" d="M852,453l29,4c0,0-17,173-20,191s-6,50-6,50l-43-32c0,0,18.5-22.5,20.5-27.5s11-76,11-76s6-60,7-74
		S852,453,852,453z"/>
	<path class="st1" d="M847,455c0,0-14,162-16,171s-23,39-23,39l-137-71L847,455z"/>
	<path class="st1" d="M665,598l139,71c0,0-6,10-15,10s-208-6-208-6l-5-9L665,598z"/>
	<path class="st1" d="M568,543l-6,106c0,0,6,11,8,11s90-65,90-65L568,543z"/>
	<path class="st1" d="M547,675l29-1c0,0-14-19-19-20s-10,5-10,10S547,675,547,675z"/>
	<line class="st1" x1="568" y1="539" x2="665" y2="591"/>
	<polygon class="st1" points="567,537 664.7,590 844,453 572,430 	"/>
	<path class="st1" d="M558,678l1,8l272,11l1-8c0,0-21-16-22-17s-9.5,9.5-14.5,9.5S558,678,558,678z"/>
	<path class="st1" d="M601,158l292,3l16,14c0,0-5-1-20,2s-200,79-200,79L601,158z"/>
	<path class="st1" d="M894,157h13v10c0,0-7-6-9-7S894,157,894,157z"/>
	<polygon class="st1" points="573,307 570,382 420,370 	"/>
	<path class="st1" d="M443,293c0,0-20,36-24,45s-16,35-16,35l165-68L443,293z"/>
	<path class="st1" d="M447,289c0,0,90-92,94-96s51-32,51-32l-18,140L447,289z"/>
	<path class="st1" d="M328,293l-5,82l74,1c0,0,21-47,27-58s15-26,15-26L328,293z"/>
	<polygon class="st1" points="436,468 565,478 564,537 	"/>
	<path class="st1" d="M316,461l-7,69c0,0,234,16,240,15s10-6,10-6l-133-71L316,461z"/>
	<polygon class="st1" points="279,455 311,460 304,530 229,518 	"/>
	<path class="st1" d="M236,407c0,0-3,29,8,38s14,9,21,10s7,1,7,1l-46,60c0,0-34-14-47-46s-16-44-16-44l-3-23L236,407z"/>
	<path class="st1" d="M161,398l77,5c0,0,4-18,12-22s20-8,20-8l-54-64c0,0-32,34-34,38S161,398,161,398z"/>
	<path class="st1" d="M221,306l54,66l44,3l4-81c0,0-47-3-59-1S221,306,221,306z"/>
	<path class="st1" d="M562,545l-4,105c0,0-9-3-11,3s-3,17-4,19s-1,2-1,2l-249-9l15-130l238.5,15.5c0,0,3,1,8-1S560.5,545.5,562,545z
		"/>
	<path class="st1" d="M225,524l78,11l-14,130l-154-18c0,0,7-7,5-15s-5-10-5-10L225,524z"/>
	<polygon class="st1" points="289,669 288,673 140,667 135,659 131,652 	"/>
	<path class="st1" d="M105,636c0,0,1-15,9-17s11-2,14,0s4,2,4,2l89-100c0,0-11-2-26-19s-32-47-35-67s-5-32-5-32l-106-7
		c0,0,2,155,6,167s25,53,25,53L105,636z"/>
	<path class="st1" d="M49,391l104,7c0,0-65-137-65-141s0-14,0-14s-24-21-29-22s-17-8-17-8s0,96,1,105S49,391,49,391z"/>
	<polygon class="st1" points="86,234 89,238 118,215 115,212 	"/>
	<path class="st1" d="M121,203c0,0,2,8,2,10s94,91,94,91s32-20,49-18s59,3,59,3s4-7,4-14s-1-8-1-8l-75.5-31.5l-82-19L121,203z"/>
	<polygon class="st1" points="120,182 120,200 229,227 	"/>
	<polygon class="st1" points="291,220 330,235 330,257 281,238 	"/>
	<polygon class="st1" points="286,217 278,235 119,171 119,149 	"/>
	<polygon class="st1" points="117,137 299,212 332,205 336,145 	"/>
	<polygon class="st1" points="305,214 331,224 333,209 	"/>
	<path class="st1" d="M336,237l-1,21l72,30l34,1l53-54c0,0,41-44,48-49s44-28,44-28l-63-6c0,0,1.5,22.5-3.5,24.5s-182,31-182,31v20
		l87,35l-3,9L336,237z"/>
	<path class="st1" d="M334,270l48,19h-51c0,0,2-6,3-11S334,270,334,270z"/>
	<polygon class="st1" points="341,144 338,204 515,174 517,151 	"/>
	<path class="st1" d="M118,623c-5,1.8-8.4,8.2-7,14c1.6,6.6,8.4,8.8,9,9c0.5,0.1,8.4,2.4,13-3c3.9-4.5,2.1-10.6,2-11
		c-1.6-5.2-6.3-7.3-8-8C125.2,623.2,121.7,621.7,118,623z"/>
	<polygon class="st1" points="293,669 294,674 553,685 553,678 	"/>
</g>
<g id="pool_1_">
	<polygon class="st7" points="420,397 416,446 541,454 545,406 	"/>
</g>
</svg>
